<svg xmlns="http://www.w3.org/2000/svg" xmlns:xlink="http://www.w3.org/1999/xlink" viewBox="0 0 239.93 61.87"><defs><style>.cls-1{fill:url(#linear-gradient);}.cls-2,.cls-4{fill-opacity:0.64;}.cls-2{fill:url(#linear-gradient-2);}.cls-3{fill:url(#linear-gradient-3);}.cls-4{fill:url(#linear-gradient-4);}.cls-5{fill:#424144;}</style><linearGradient id="linear-gradient" x1="25" y1="1.73" x2="1.8" y2="39.33" gradientUnits="userSpaceOnUse"><stop offset="0" stop-color="#2c20f1"/><stop offset="1" stop-color="#42c0ef"/></linearGradient><linearGradient id="linear-gradient-2" x1="0.75" y1="23.4" x2="31.88" y2="23.4" gradientUnits="userSpaceOnUse"><stop offset="0" stop-color="#fff" stop-opacity="0.3"/><stop offset="1" stop-color="#7883c0" stop-opacity="0"/></linearGradient><linearGradient id="linear-gradient-3" x1="70.36" y1="169.43" x2="47.16" y2="207.03" gradientTransform="translate(94.14 229.56) rotate(180)" xlink:href="#linear-gradient"/><linearGradient id="linear-gradient-4" x1="46.11" y1="191.09" x2="77.24" y2="191.09" gradientTransform="translate(94.14 229.56) rotate(180)" xlink:href="#linear-gradient-2"/></defs><g id="Layer_2" data-name="Layer 2"><g id="Layer_1-2" data-name="Layer 1"><path class="cls-1" d="M31.88,13.62V.47A26.87,26.87,0,0,0,1.94,36.92H16.8l0,0a14.16,14.16,0,0,1,15-23.26Z"/><path class="cls-2" d="M31.88,13.62v-.89A20.45,20.45,0,0,0,21.43,9.88,20.67,20.67,0,0,0,.75,30.55a20.11,20.11,0,0,0,.41,4.06c.23.78.49,1.55.79,2.31H16.8l0,0a14.16,14.16,0,0,1,15-23.26Z"/><path class="cls-3" d="M16.9,48.25V61.4A26.87,26.87,0,0,0,46.84,25H32l0,0a14.17,14.17,0,0,1-15,23.26Z"/><path class="cls-4" d="M16.9,48.25v.88A20.65,20.65,0,0,0,48,31.32a20.86,20.86,0,0,0-.4-4.06c-.24-.78-.49-1.55-.8-2.31H32l0,0a14.16,14.16,0,0,1-15,23.26Z"/><path class="cls-5" d="M80.23,30.41l-4-1.68c-2.45-1-4.71-1.87-4.71-4.19,0-2.17,1.83-3.48,4.64-3.48a9.53,9.53,0,0,1,6.43,2.54l2.7-3.33a13,13,0,0,0-9.13-3.78c-5.78,0-10,3.63-10,8.35,0,4.34,3.07,6.65,6,7.86l4,1.76c2.69,1.14,4.6,1.92,4.6,4.36S79,42.64,75.69,42.64A11.63,11.63,0,0,1,68,39.26l-3.06,3.61a15.25,15.25,0,0,0,10.67,4.34c6.65,0,10.64-4,10.64-8.81C86.22,34.1,83.75,31.88,80.23,30.41Z"/><rect class="cls-5" x="91.17" y="24.41" width="5.22" height="22.25"/><path class="cls-5" d="M111.52,33.58c-2.41-.89-4.66-1.56-4.66-3.32,0-1.39,1.06-2.46,3.3-2.46A8.31,8.31,0,0,1,115,29.74l2.39-3.21A12,12,0,0,0,110,23.87c-5,0-8.1,2.79-8.1,6.65s3.34,5.39,6.25,6.48c2.38.91,4.79,1.74,4.79,3.61,0,1.52-1.14,2.66-3.57,2.66a9.84,9.84,0,0,1-6.15-2.48l-2.42,3.32a13.92,13.92,0,0,0,8.42,3.1c5.62,0,8.65-3.08,8.65-6.91C117.9,36.15,114.53,34.7,111.52,33.58Z"/><path class="cls-5" d="M130.81,43.06c-2.14,0-3.16-1.29-3.16-3.91V28.56h5.67V24.41h-5.67V18.34l-5.19,5.24v.88l-3.21.19v3.91h3.17v10.6c0,4.8,1.91,8.05,7,8.05a14.35,14.35,0,0,0,4.55-.82l-.88-3.84A7.13,7.13,0,0,1,130.81,43.06Z"/><path class="cls-5" d="M146.07,23.87c-5.24,0-10.26,4.45-10.26,11.68s4.82,11.66,11,11.66a13.84,13.84,0,0,0,7.63-2.41l-1.78-3.25a9.44,9.44,0,0,1-5.16,1.61c-3.59,0-6.13-2.24-6.56-6.19H155a13.35,13.35,0,0,0,.23-2.54C155.26,28.21,152.09,23.87,146.07,23.87Zm-5.22,9.55c.46-3.57,2.74-5.51,5.33-5.51,3,0,4.57,2.08,4.57,5.51Z"/><path class="cls-5" d="M185.2,23.87c-2.83,0-5,1.72-7.16,4a6,6,0,0,0-6.14-4c-2.79,0-5,1.61-6.83,3.58h-.15l-.4-3h-4.27V46.66h5.22V31.11c1.72-1.86,3.28-2.77,4.65-2.77,2.34,0,3.43,1.38,3.43,5V46.66h5.22V31.11c1.72-1.86,3.24-2.77,4.65-2.77,2.34,0,3.43,1.38,3.43,5V46.66h5.22V32.71C192.07,27.09,189.89,23.87,185.2,23.87Z"/><polygon class="cls-5" points="217.64 24.41 211.93 24.41 203.69 34.65 203.54 34.65 203.54 14.66 198.43 18.85 198.43 46.66 203.54 46.66 203.54 41.01 207.02 37 212.75 46.66 218.42 46.66 210.01 33.47 217.64 24.41"/><path class="cls-5" d="M234.71,24.41V39.65c-1.69,2.17-3,3.08-4.93,3.08-2.41,0-3.46-1.38-3.46-5V24.41H221.1v14c0,5.62,2.08,8.85,6.85,8.85,3,0,5.2-1.51,7.16-3.83h.14l.4,3.28h4.28V24.41Z"/><path class="cls-5" d="M93.78,12.37a3.1,3.1,0,1,0,3.09,3.09A3.09,3.09,0,0,0,93.78,12.37Z"/></g></g></svg>